<?xml version="1.0" encoding="UTF-8" standalone="no"?>
<!-- Created with Inkscape (http://www.inkscape.org/) -->

<svg
   xmlns:dc="http://purl.org/dc/elements/1.1/"
   xmlns:cc="http://creativecommons.org/ns#"
   xmlns:rdf="http://www.w3.org/1999/02/22-rdf-syntax-ns#"
   xmlns:svg="http://www.w3.org/2000/svg"
   xmlns="http://www.w3.org/2000/svg"
   xmlns:sodipodi="http://sodipodi.sourceforge.net/DTD/sodipodi-0.dtd"
   xmlns:inkscape="http://www.inkscape.org/namespaces/inkscape"
   width="1019.1271"
   height="509.95364"
   id="svg4436"
   version="1.1"
   inkscape:version="0.48.2 r9819"
   sodipodi:docname="Rettungszeichen_Notausgang_Links_(alt).svg">
  <defs
     id="defs4438" />
  <sodipodi:namedview
     inkscape:document-units="mm"
     pagecolor="#ffffff"
     bordercolor="#666666"
     borderopacity="1.0"
     inkscape:pageopacity="0.0"
     inkscape:pageshadow="2"
     inkscape:zoom="0.61399264"
     inkscape:cx="335.63884"
     inkscape:cy="100.74778"
     inkscape:current-layer="layer1"
     id="namedview4440"
     showgrid="false"
     units="mm"
     fit-margin-top="0"
     fit-margin-left="0"
     fit-margin-right="0"
     fit-margin-bottom="0"
     inkscape:window-width="1676"
     inkscape:window-height="1006"
     inkscape:window-x="0"
     inkscape:window-y="0"
     inkscape:window-maximized="1" />
  <metadata
     id="metadata4442">
    <rdf:RDF>
      <cc:Work
         rdf:about="">
        <dc:format>image/svg+xml</dc:format>
        <dc:type
           rdf:resource="http://purl.org/dc/dcmitype/StillImage" />
        <dc:title />
      </cc:Work>
    </rdf:RDF>
  </metadata>
  <g
     inkscape:label="Layer 1"
     inkscape:groupmode="layer"
     id="layer1"
     transform="translate(-19.648579,-100.22754)">
    <rect
       y="101.99919"
       x="21.420233"
       height="506.41034"
       width="1015.5838"
       id="rect4417"
       style="fill:#ffffff;fill-opacity:1;stroke:#000000;stroke-width:3.54330707;stroke-miterlimit:4;stroke-opacity:1;stroke-dasharray:none" />
    <rect
       style="fill:#009262;fill-opacity:1;stroke:none"
       id="rect3907"
       width="991.26715"
       height="484.27719"
       x="34.619236"
       y="112.98299" />
    <path
       style="fill:#ffffff;fill-opacity:1;stroke:#000000;stroke-width:0.12759449;stroke-linecap:butt;stroke-linejoin:miter;stroke-miterlimit:4;stroke-opacity:1;stroke-dasharray:none"
       d="m 309.25134,449.90377 -0.32706,-130.38832 42.84083,-43.00445 1.03274,98.59891 141.64091,-141.60004 31.41074,31.3703 -141.64647,140.66487 98.96361,0.83161 -43.24404,43.57123 z"
       id="path2995"
       inkscape:connector-curvature="0" />
    <path
       sodipodi:type="arc"
       style="fill:#ffffff;fill-opacity:1;stroke:none"
       id="path3767"
       sodipodi:cx="694.90405"
       sodipodi:cy="117.66366"
       sodipodi:rx="35.433479"
       sodipodi:ry="35.943314"
       d="m 730.33753,117.66366 c 0,19.85094 -15.86411,35.94331 -35.43348,35.94331 -19.56937,0 -35.43348,-16.09237 -35.43348,-35.94331 0,-19.850946 15.86411,-35.943315 35.43348,-35.943315 19.56937,0 35.43348,16.092369 35.43348,35.943315 z"
       transform="matrix(1.1473555,0,0,1.1597919,-40.8356,83.293561)" />
    <path
       style="fill:#ffffff;fill-opacity:1;stroke:none"
       d="m 668.35665,342.06827 0.13053,33.54698 111.7362,0.26106 0,-49.08039 41.50947,72.31526 -73.35951,44.51173 0,121.13455 34.98283,0 -0.13053,-101.68514 74.27324,-43.9896 -0.26107,88.89293 136.92905,-0.3916 0,-36.02709 -101.16302,0.26106 0.26106,-85.89067 -69.05192,-116.17432 59.78408,0.13053 38.63775,65.0054 28.97831,-17.49141 -49.73304,-81.71362 -96.46384,0.26107 c -9.61233,27.49832 -29.20385,38.10879 -56.91236,34.98282 l -0.13054,70.48779 z"
       id="path3903"
       inkscape:connector-curvature="0"
       sodipodi:nodetypes="cccccccccccccccccccccccc" />
    <rect
       style="fill:#ffffff;fill-opacity:1;stroke:none"
       id="rect3905"
       width="199.84593"
       height="406.73648"
       x="71.168465"
       y="152.01231" />
    <path
       id="path2992"
       style="fill:#ffffff;fill-opacity:1;stroke:none"
       d="m 649.78651,357.8077 c 0,4.68862 -3.80087,8.48949 -8.48949,8.48949 -4.6886,0 -8.48948,-3.80087 -8.48948,-8.48949 0,-4.68861 3.80088,-8.48948 8.48948,-8.48948 4.68862,0 8.48949,3.80087 8.48949,8.48948 z m -75.58574,-185.16541 -9.80055,22.03089 8.15808,8.15808 -5.70115,15.5017 17.94505,11.42946 -4.90027,14.68725 14.68725,8.97253 -4.07225,20.40199 8.97253,5.70114 -4.90028,12.24392 -5.70115,8.97252 4.88671,8.97253 10.615,-3.2578 2.837,7.09929 c -16.01007,11.12067 -24.26106,28.13495 -19.1803,43.03013 6.60047,19.35055 33.19521,27.80213 59.38701,18.8681 26.19178,-8.93402 42.06978,-31.8648 35.46931,-51.21536 -5.58632,-16.37733 -25.48455,-24.9438 -47.34672,-21.77297 L 594.58918,184.8862 574.20077,172.64229 z"
       inkscape:connector-curvature="0" />
  </g>
</svg>
